<svg width="13" height="16" viewBox="0 0 13 16" fill="none" xmlns="http://www.w3.org/2000/svg">
<path d="M3.5 0C2.67188 0 2 0.671875 2 1.5V3V3.89062V5.5C2 5.775 1.775 6 1.5 6C1.225 6 1 5.775 1 5.5V4.66563L0.71875 4.9C0.2625 5.28125 0 5.84375 0 6.4375V7.625C0 8.8125 0.528125 9.9375 1.44062 10.6969L3 12V15C3 15.5531 3.44687 16 4 16H9C9.55313 16 10 15.5531 10 15V11.7094C11.4656 11.1156 12.5 9.67813 12.5 8V5.5V5V4.5C12.5 3.67188 11.8281 3 11 3C10.6125 3 10.2625 3.14688 9.99687 3.38438C9.9375 2.60938 9.29062 2 8.5 2C8.1125 2 7.7625 2.14688 7.49687 2.38438C7.4375 1.60938 6.79062 1 6 1C5.6125 1 5.2625 1.14687 4.99687 1.38437C4.9375 0.609375 4.29062 0 3.5 0Z" fill="#F07B26"/>
</svg>
