<svg width="19" height="16" viewBox="0 0 19 16" fill="none" xmlns="http://www.w3.org/2000/svg">
<path d="M13.8813 0C12.4125 1.55 12 3.95312 12 6C12 10.9625 11.1469 13.7187 10.6656 14.8719C10.3531 15.6219 9.62813 16 8.93438 16H1.5C1.14063 16 0.806254 15.8062 0.631254 15.4937C0.456254 15.1812 0.456254 14.7969 0.643754 14.4875C0.950004 13.9344 1.125 13.2937 1.28438 12.6844C1.63438 11.3375 2 9.17188 2 6C2 2.6875 3.34375 0 5 0H13.8813ZM16 12C14.3438 12 13 9.3125 13 6C13 2.6875 14.3438 0 16 0C17.6563 0 19 2.6875 19 6C19 9.3125 17.6563 12 16 12ZM16 8C16.5531 8 17 7.10312 17 6C17 4.89688 16.5531 4 16 4C15.4469 4 15 4.89688 15 6C15 7.10312 15.4469 8 16 8ZM4.5 6.5C4.5 6.36739 4.44733 6.24021 4.35356 6.14645C4.25979 6.05268 4.13261 6 4 6C3.8674 6 3.74022 6.05268 3.64645 6.14645C3.55268 6.24021 3.5 6.36739 3.5 6.5C3.5 6.63261 3.55268 6.75979 3.64645 6.85355C3.74022 6.94732 3.8674 7 4 7C4.13261 7 4.25979 6.94732 4.35356 6.85355C4.44733 6.75979 4.5 6.63261 4.5 6.5ZM6.5 6.5C6.5 6.36739 6.44733 6.24021 6.35356 6.14645C6.25979 6.05268 6.13261 6 6 6C5.8674 6 5.74022 6.05268 5.64645 6.14645C5.55268 6.24021 5.5 6.36739 5.5 6.5C5.5 6.63261 5.55268 6.75979 5.64645 6.85355C5.74022 6.94732 5.8674 7 6 7C6.13261 7 6.25979 6.94732 6.35356 6.85355C6.44733 6.75979 6.5 6.63261 6.5 6.5ZM8 7C8.13261 7 8.25979 6.94732 8.35356 6.85355C8.44733 6.75979 8.5 6.63261 8.5 6.5C8.5 6.36739 8.44733 6.24021 8.35356 6.14645C8.25979 6.05268 8.13261 6 8 6C7.8674 6 7.74022 6.05268 7.64645 6.14645C7.55268 6.24021 7.5 6.36739 7.5 6.5C7.5 6.63261 7.55268 6.75979 7.64645 6.85355C7.74022 6.94732 7.8674 7 8 7ZM10.5 6.5C10.5 6.36739 10.4473 6.24021 10.3536 6.14645C10.2598 6.05268 10.1326 6 10 6C9.8674 6 9.74022 6.05268 9.64645 6.14645C9.55268 6.24021 9.5 6.36739 9.5 6.5C9.5 6.63261 9.55268 6.75979 9.64645 6.85355C9.74022 6.94732 9.8674 7 10 7C10.1326 7 10.2598 6.94732 10.3536 6.85355C10.4473 6.75979 10.5 6.63261 10.5 6.5Z" fill="#0D7EBE"/>
</svg>
